<?xml version="1.0" standalone="no"?>
<!DOCTYPE svg PUBLIC "-//W3C//DTD SVG 20010904//EN"
 "http://www.w3.org/TR/2001/REC-SVG-20010904/DTD/svg10.dtd">
<svg version="1.0" xmlns="http://www.w3.org/2000/svg"
 width="1432.000000pt" height="1432.000000pt" viewBox="0 0 1432.000000 1432.000000"
 preserveAspectRatio="xMidYMid meet">
<metadata>
Created by potrace 1.11, written by Peter Selinger 2001-2013
</metadata>
<g transform="translate(0.000000,1432.000000) scale(0.100000,-0.100000)"
fill="#000000" stroke="none">
<path d="M5642 13863 c-7 -2 -21 -21 -31 -41 -10 -21 -580 -1391 -1266 -3047
-1220 -2940 -1250 -3011 -1295 -3055 -25 -25 -126 -117 -224 -205 -632 -564
-1141 -1161 -1382 -1620 -155 -296 -202 -577 -130 -770 68 -182 228 -313 486
-400 61 -20 96 -37 98 -48 2 -8 -73 -204 -166 -434 -435 -1072 -722 -1796
-722 -1822 0 -10 10 -27 22 -38 13 -12 187 -125 388 -252 251 -159 374 -231
393 -231 24 0 31 7 52 52 13 29 279 670 590 1423 311 754 571 1375 578 1382
23 23 388 72 687 93 221 15 710 12 931 -5 661 -53 1240 -202 1744 -450 181
-89 379 -206 383 -227 2 -8 -38 -51 -90 -98 -859 -770 -1505 -1506 -1821
-2076 -176 -317 -242 -538 -242 -809 0 -125 4 -163 23 -228 37 -130 85 -212
176 -303 163 -162 385 -238 736 -251 330 -12 740 47 1128 163 769 230 1735
685 2454 1156 l168 110 127 -85 c759 -504 1676 -790 2371 -739 83 6 160 16
171 22 11 6 22 24 25 43 5 27 18 439 28 845 4 139 10 134 -207 150 -454 33
-937 130 -1237 248 -156 62 -348 163 -348 183 0 5 60 58 133 117 649 528 1351
1173 1726 1584 184 203 303 358 486 634 339 514 465 750 559 1046 67 210 81
308 80 545 0 234 -13 314 -78 509 -89 266 -276 570 -484 788 -277 290 -799
540 -1501 717 -322 82 -719 158 -936 180 -239 24 -1066 67 -1525 80 -304 8
-332 13 -338 64 -8 68 106 193 462 505 437 383 975 821 1370 1117 265 197 426
307 576 390 58 32 267 154 465 270 671 395 890 517 1191 668 295 148 474 218
619 243 110 20 114 24 92 127 -46 223 -224 794 -259 829 -27 27 -42 23 -328
-72 -561 -187 -1144 -441 -1535 -671 -248 -145 -1100 -706 -1525 -1004 -1009
-707 -1633 -1274 -1988 -1807 -217 -327 -329 -559 -377 -783 -17 -83 -19 -223
-4 -297 48 -232 249 -410 583 -517 330 -106 722 -141 1781 -161 683 -13 831
-25 1085 -86 232 -57 801 -266 1045 -385 502 -243 664 -547 502 -939 -60 -147
-288 -587 -376 -727 -247 -395 -605 -798 -1151 -1294 -334 -304 -1129 -959
-1164 -959 -17 0 -911 973 -911 993 0 13 204 169 701 533 665 487 1219 872
1382 960 50 27 74 46 79 62 7 28 13 19 -283 409 -116 153 -225 299 -242 325
-66 97 -76 98 -198 22 -1136 -718 -1905 -1248 -2217 -1532 -57 -52 -83 -69
-95 -64 -9 4 -80 45 -157 91 -265 159 -633 336 -965 463 -613 235 -1232 379
-1885 440 -158 14 -770 18 -962 5 -85 -6 -123 -5 -123 2 0 6 40 55 88 108 154
171 378 437 702 833 751 920 854 1045 1009 1229 487 576 817 920 1146 1197
945 793 3554 2689 4404 3200 162 97 186 115 189 138 4 30 -21 72 -310 523
-133 207 -183 273 -208 273 -18 0 -678 -409 -1195 -740 -1871 -1199 -3348
-2274 -4284 -3119 -64 -57 -117 -99 -118 -94 -2 6 60 145 138 309 983 2077
1452 3183 1511 3561 14 89 2 113 -75 147 -29 13 -168 76 -309 139 -323 146
-530 235 -560 241 -13 3 -29 2 -36 -1z m2415 -10755 c214 -233 407 -443 428
-467 l39 -43 -23 -19 c-89 -72 -553 -338 -861 -493 -680 -343 -1210 -523
-1763 -600 -27 -3 -40 -1 -43 9 -7 17 59 159 127 273 197 329 507 693 947
1116 293 280 716 646 747 646 8 0 189 -190 402 -422z"/>
</g>
</svg>
